<?xml version="1.0" encoding="UTF-8"?>
<svg id="Camada_1" data-name="Camada 1" xmlns="http://www.w3.org/2000/svg" viewBox="0 0 363.16 432.93">
  <defs>
    <style>
      .cls-1 {
        fill: #007aec;
      }

      .cls-2 {
        fill: #fff;
      }

      .cls-3 {
        opacity: .4;
      }

      .cls-4 {
        opacity: .2;
      }

      .cls-5 {
        opacity: .1;
      }

      .cls-6 {
        fill: #007ae9;
      }
    </style>
  </defs>
  <g class="cls-4">
    <path class="cls-6" d="M333.54,134.4c-.66-10.18-6.81-19.21-16.03-23.58l-119.43-56.72c-7.65-3.63-16.53-3.63-24.17,0l-119.43,56.72c-9.22,4.38-15.37,13.4-16.03,23.58-11.2,173.17,99.83,236.26,136.23,252.2,7.22,3.16,15.42,3.16,22.64,0,36.4-15.94,147.43-79.03,136.23-252.2Z"/>
  </g>
  <g class="cls-3">
    <path class="cls-6" d="M311.81,147.03c-.56-8.68-5.81-16.38-13.67-20.11l-101.84-48.37c-6.52-3.1-14.09-3.1-20.61,0l-101.84,48.37c-7.86,3.73-13.11,11.43-13.67,20.11-9.55,147.66,85.13,201.47,116.17,215.06,6.16,2.7,13.15,2.7,19.3,0,31.04-13.59,125.72-67.39,116.17-215.06Z"/>
  </g>
  <path class="cls-2" d="M290.3,159.54c-.47-7.2-4.81-13.58-11.33-16.67l-84.43-40.1c-5.41-2.57-11.68-2.57-17.09,0l-84.43,40.1c-6.52,3.09-10.86,9.47-11.33,16.67-7.92,122.41,70.57,167.02,96.3,178.28,5.1,2.23,10.9,2.23,16,0,25.73-11.27,104.22-55.87,96.3-178.28Z"/>
  <path class="cls-1" d="M238.51,277.59c-17.66,22.52-38.32,34.58-50.41,40.21-.77.36-1.59.51-2.42.45-.61-.03-1.22-.19-1.79-.45-12.1-5.63-32.76-17.69-50.41-40.21-23.16-29.53-33.71-67.63-31.38-113.3.09-1.82,1.18-3.45,2.83-4.24l78.93-37.48c.58-.28,1.19-.43,1.81-.47.83-.07,1.67.1,2.45.47l78.93,37.48c1.65.78,2.74,2.42,2.82,4.24,2.34,45.66-8.21,83.77-31.37,113.3Z"/>
  <g class="cls-5">
    <path d="M238.51,277.59c-17.66,22.52-38.32,34.58-50.41,40.21-.77.36-1.59.51-2.42.45V122.1c.83-.07,1.67.1,2.45.47l78.93,37.48c1.65.78,2.74,2.42,2.82,4.24,2.34,45.66-8.21,83.77-31.37,113.3Z"/>
  </g>
  <g>
    <path class="cls-2" d="M186,175.12c-15.94,0-28.91,12.97-28.91,28.91v2.59h10.51v-2.59c0-10.15,8.25-18.4,18.4-18.4s18.4,8.25,18.4,18.4v2.59h10.51v-2.59c0-15.94-12.97-28.91-28.91-28.91Z"/>
    <path class="cls-2" d="M218.74,211.53h-65.49c-1.99,0-3.61,1.62-3.61,3.61v46.47c0,1.99,1.62,3.61,3.61,3.61h65.49c1.99,0,3.61-1.62,3.61-3.61v-46.47c0-1.99-1.62-3.61-3.61-3.61ZM188.57,240.56l1.22,11.55h-7.58l1.22-11.55c-3.02-1.07-5.19-3.91-5.19-7.29,0-4.29,3.48-7.77,7.77-7.77s7.77,3.48,7.77,7.77c0,3.38-2.17,6.23-5.19,7.29Z"/>
  </g>
</svg>